<?xml version="1.0" encoding="UTF-8"?>
<svg id="Layer_2" data-name="Layer 2" xmlns="http://www.w3.org/2000/svg" viewBox="0 0 1850 1850">
  <defs>
    <style>
      .cls-1 {
        fill: none;
      }
    </style>
  </defs>
  <g id="Layer_1-2" data-name="Layer 1">
    <g>
      <g>
        <path d="M1384.95,795.82l-7.57-58.37,3.97-40.1,59.7-140.94-97.44-69.78-5.34-42.05,16.49-219-183.36-98.52-131.02-58.3L910.58,0l-127.63,69.61-168.45,84.85-145.76,88.89,9.5,190.89-9.5,39.58-59.81,100.03,40.8,126.33-.64,43.73-.71,52.57-27.76,99.45,5,77.43c1.6,24.84,12.42,48.19,30.34,65.48l104.36,100.7,7.73,41.98-2.47,169.63c-.67,46.15,18.49,90.37,52.63,121.44l175.66,159.86c15.99,14.55,28.91,32.14,38.03,51.74l77.1,165.83,68.75-161.34c11.64-27.3,28.38-52.14,49.33-73.16l168.97-169.52,16.31-16.14c33.22-32.87,51.08-78.2,49.21-124.9l-6.06-150.89,115.95-110.39c19.41-18.48,30.4-44.12,30.4-70.92v-26.63l-.74-116.63-16.18-33.65ZM1207.81,1024.54c-9.27,3.41-26.37,7.37-33.71,13.52-7.32,19.45-13.81,40.32-16.73,60.95-1.84,12.99-1.23,26.85-1.28,39.96-.07,19.95-.41,39.97,1.1,59.87l11.37-74.35c2.77-13.69,6.64-26.72,11.17-39.91,1.47-4.29,2.84-11.11,5.16-14.87,3.32-5.39,13.84-11.12,19.12-14.63-1.16,11.14-4.48,21.7-5.14,33.12-3.09,53.35,1.04,107.5-4.16,160.86-1.4,14.38-5.28,28.87-8.29,43.03l-14.61,73.11-9.51-90.31-2.33-32.38-109.09,227.05-27.99-134.95-39.83,254.63-9.78-84.88c-3.09-24.09-5.41-48.56-11.26-72.14l-51.82,314.61-42-320.95-43.93,184.5-26.72-275.86-31.02,157.18-101.34-258.33-7.2,128.92-17.99-63.69c-4.94-17.21-10.57-35.61-12.44-53.48-1.47-14.15-.47-29.04-.28-43.26.44-33.38,2.76-68.29-2.75-101.34-2.63-15.78-7.75-30.54-13.23-45.51,7.39,1.57,14.82,5.64,21.76,8.66,9.41,20.11,16.84,41.53,21.22,63.32,4.69,23.34,6.22,47.49,10.07,71.04,3.48-29.29,7.06-62.18,3.57-91.51-2.75-23.13-9.52-44.9-15.56-67.31l-167.88-67.53-4.49-13.85h0s0,0,0,0h0s190.28,69.76,190.28,69.76c3.84,5.57,5.24,15.94,7.01,22.62,3.01,11.32,7.06,23.02,8.53,34.65,1.36,10.79.81,22.41.92,33.32l.37,60.14c.06,13.03-1.48,28.45,1.35,41.08,3.98,17.75,15.7,36.9,23.14,53.7,10.1,22.8,16.53,44.07,22.04,68.28,1.4-12.09,2.64-94.4,4.59-97.31l13.09-.29c12.58,21.57,22.1,47.02,31.14,70.31l2.89-71.42h33.65s14.76,106.3,14.76,106.3l13.13-106.4h51.79s7.92,112.94,7.92,112.94c1.3,22.3.3,44.75,5.02,66.71l12.8-179.65,55.36-.27,9.34,99.35,15.97-99.04h33.37s4.6,77.33,4.6,77.33l35.06-76.64c4.25.21,6.72-.23,10.3,2.18l-.12,91.78,19.3-57.28,20.32-53.3c3-7.84,7.78-17.44,8.99-25.72,3.17-21.65.06-46.14.9-68.2,1.44-37.88,12.77-71.44,23.66-107.39,23.93-5.22,169.27-61.39,176.37-59.08l.22,5.09c-5.3,9.82-111.95,46.45-130.23,53.17ZM1315.94,691.14l-.31,26.36.14,35.87c.11,5.4-.29,11.82.97,17.03,2.9,12,10.33,25.03,15.63,36.33l27.55,61.35c1.44,3.5,5.6,10.84,5.83,14.39.13,2.17-2.06,7.31-2.7,9.53l-10.31,33.61c-8.25,5.22-19.98,8.01-29.31,11.16l-57.97,19.17-129.97,42.48c-4.98,15.86-12.22,30.84-18.83,46.05-3.54,8.15-8.32,17.44-9.59,26.27-1.5,10.4-.15,22.29.16,32.83l.32,53.51c-.35,18.37.15,32.16-10.9,47.69l-3.64.35c-1.07-.86-2.44-1.43-3.2-2.56-1.77-2.64-2.83-13.56-3.61-17.35l-14.7-71.37-10.44,92.21-55.76-.03c-2.21-33.41-3.75-70.04-11-102.66l-14.41,103.03-55.57.17-11.87-112.15-2.17,20.53-11.33,91.92-53.74-.15-11.9-108.12-13.11,108.93-54.49-.07-12.29-95.83c-6.27,22.06-9.82,47.17-13.77,69.91-1.2,6.93-1.4,20.27-5.42,25.39-3.66.05-8.47.69-11.86-.78-2.04-.88-2.78-19.75-2.96-22.89l-.76-71.76c.13-12.19,1.58-25.86-.52-37.89-2.21-12.62-8.68-25.25-12.81-37.43l-9.75-33.78c-27.08-6.65-53.97-20.09-80.11-30l-141.19-51.71-5.58-12.23c-1.87-4.81-7.79-18.24-7.27-22.77.7-6.13,5.79-15.24,8.06-21.29,10.44-27.78,20.66-55.92,33.13-82.87l1.9-4.1c1.8-4.66,2.13-92.69.48-98.1-.65-2.12-4.86-6.28-6.25-7.99-4.13-5.08-7.68-10.52-11.13-16.09-12.31-19.86-23.52-41.34-33.22-62.59,14.88,3.55,31.58,9.48,44.85,17.18,13.08,7.6,25.51,18.29,37.71,27.31l.54,137.73,36.82,33.79c7.37,7.01,14.88,15.72,23.3,21.46,7.15,4.87,16.94,7.62,25.01,10.92l46.49,18.83,128.22-62.03c-25.66,26.73-54.26,49.08-84.71,70-13.1,9-25.86,18.39-39.92,25.89l-90.09-36.9c-10.58-3.74-17.24-12.29-25.13-19.93l-33.57-32.36c-7.6,13.81-13.08,29.3-18.93,43.93l-16.04,39.79,178.92,57.42c-12.82-8.19-28.1-13.7-42.05-19.8l-121.93-48.57,22.69-52.98c11.43,13.8,26.87,32.05,41.93,41.79,8.94,5.78,20.64,9.37,30.55,13.38l78.25,29.57c52.35-30.55,97.98-70.28,146.32-106.45l-111.88,161.66c.15,6.98,6.37,16.84,9.13,23.41l30.93,66.79c8.61,17.27,17.63,35.45,30.16,50.23-5.94-20.71-14.46-41.43-22.63-61.38l-25.65-60.13c-.98-2.38-6.71-14.74-6.34-16.74.22-1.21,5.02-6.84,5.96-8.14l20.07-28.57c51.71-74.22,117.34-146.67,129.51-239.95,2.73-20.92.61-42.72,1.81-63.82,1.23-21.65,6.37-43.95,6.34-65.42l-1.13,1.33c-8.04,47.46-29.69,92.39-50.7,135.22-30.27-8.74-59.8-21.01-89.46-31.64l-182.75-63.76c-29.29-9.55-58.69-21.17-89.2-25.95,4.09-4.51,11.62-7.82,16.86-10.94l34.93-21.45,81.27-54.48,229.2,103.19c-2.4-3.2-7.54-6.25-10.81-8.62l-25.17-17.2-130-82.05c-16.7-9.65-34.01-20.86-52.14-27.44l-1.84-.64-24.66-196.63c-2.07,5.63-1.83,12.29-2.18,18.29l-1.7,30.69-5.77,149.76c-9.01,5.19-16.96,12.67-25.16,19.1-20.61,16.17-41.62,33.99-64.19,47.27,5.74-15.64,13.91-31.21,17.75-47.42,6.67-28.19,6.97-60.18,9.09-89.14l10.18-134.79,125.84-80.57,23.14,184.03c19.69,13.5,45.24,23.06,66.67,33.72l88.7,43.67c24.48,11.93,49.07,24.4,75.12,32.53.06-.06.12-.11.18-.17-8.04-9.12-24.1-17.03-34.41-24.12l-89.68-60.11c-24.53-16.24-49.03-32.91-74.95-46.87l-25.33-177.57,220.76-117.08h0c6.53-.73,12.82,3.44,18.47,6.33l36.51,19.01,174.38,94.15-23.66,131.68-6.35,35.61c-.38,1.95-.84,7.86-1.83,9.41-.3.47-4.42,2.51-4.9,2.79l-20.9,12.45-126.91,84.6c-13.59,9.53-29.18,18.26-41.19,29.73.09.1.19.2.28.31,32.15-9.61,63.26-27.86,93.35-42.63l132.26-66.57c6.4-22.41,7.86-48.04,11.39-71.11,5.67-37.09,13.68-74.28,16.3-111.72,16.77,7.7,32.65,18.99,48.33,28.74l77.64,48.68,14.83,264.89-56.52-46.97c-3.31-2.83-12.1-8.69-14.09-12.08-2.44-4.16-3.04-37.56-3.46-44.02l-6.29-90.4c-1.45-20.37-2.25-41.44-5.8-61.52l-20.08,188.15-216.63,140.3c21.13-5.39,42.35-17.39,62.36-26.21,55.91-24.64,113.13-49.02,166.46-78.9l122.3,91.08c-8.22,4.82-20.3,7.24-29.54,10.18l-79.07,24.9-243.84,87.25c-16.22-36.51-33-72.11-42.88-111.03-1.91-7.54-4.86-15.55-5.43-23.27-.19-2.54-.28-3.92-1.72-6.13-.81,20.5,3.84,42.81,4.73,63.59,1.02,23.78-1.51,49.16,2.45,72.65,11.97,71.01,55.76,132.54,97.82,188.79l61.63,82.23c-3.55,10.29-9.62,20.31-14.08,30.34-16.7,37.57-36.87,76.75-47.93,116.25,33.31-43.45,54.32-99.49,77.21-149.08-37.62-53.13-81.69-103.35-114.17-159.89,10.42,4.77,20.33,14.17,29.3,21.32l43.08,33.07,82.56,53.94,61.37-26.51c12.23-5.19,26.48-9.85,37.42-17.33,15.35-10.5,29.56-26.04,42.82-39.09l20.2,50.13c-9.96,6.8-26.73,10.76-38.26,15.09l-81.79,32.37c-13.96,5.8-29.77,11.32-42.52,19.37,21.65-2.81,43.99-10.5,64.69-17.25l68.88-22.33c13.21-4.38,37.14-9.04,47.42-17.96l-35-80.09c-17.8,16.04-36.2,34.93-56.04,48.36-9.68,6.55-24.21,10.84-35.14,15.52l-52.34,22.94c-8.32-3.34-16.85-10.19-24.46-15.15-36.74-23.98-69.77-50.08-102.86-78.91l132.88,60.54,49.59-23.57c11.1-5.17,22.6-9.43,31.39-18.23l27.87-30.35c3.16-3.55,9.23-8.84,11.12-13.12,2.68-6.09.63-22.14.63-29.08l-.14-109.1c9.02-6.8,19.91-12.03,29.85-17.39l54.29-28.14-14.7,35.04c-2.92,6.95-5.65,15.55-9.77,21.77-5.32,8.04-13.96,15.07-20.46,22.3-1.9,2.11-5.64,5.6-6.46,8.24-.96,3.09-.37,8.25-.42,11.5ZM639.85,732.24l.67-16.68,33.72-19.04h0s4.35-.79,4.35-.79c7.24,3.15,38.29,17.27,41.79,22.69,1.63,2.54,2.16,10.55,1.21,13.38-1.06,3.15-32.12,19.28-37.36,22.32l-4.19,1.12c-14.24-5.94-27.23-14.72-40.19-22.99ZM1177.99,735.23c-11.93,7.73-24.59,17.18-37.74,22.51l-4.92-2.8c-10.35-6.26-29.81-14.6-37.28-23.51,4.68-5.22,4.14-6.73,4.78-13.51,12.23-10.33,30.21-17,44.99-22.84h0c8-.48,23.06,13.53,30.14,18.79l.03,21.37Z"/>
        <path d="M911.93,788.92h0s-114.5,180.04-114.5,180.04c16.27,14.23,82.01,84.33,98.82,86.64,4.19-2.77,7.51-5.54,8.27-10.8l5.28-126.87,1.23,1.09c3.65,31.36,3.87,63.35,5.1,94.91.35,8.98-1.03,21.49,1.3,29.93,1.18,4.28,5.6,10.36,8.88,13.31l.99.76c35.3-26.32,66.74-58.29,97.9-89.28l-46.98-80.21c-20.03-33.58-39.06-71.04-66.29-99.52Z"/>
      </g>
      <rect class="cls-1" width="1850" height="1850"/>
    </g>
  </g>
</svg>